<svg width="20" height="20" viewBox="0 0 20 20" fill="none" xmlns="http://www.w3.org/2000/svg">
<path d="M19.9617 12.2559L17.8804 6.44856C17.7613 6.11633 17.4038 5.92638 17.0728 6.038C16.9085 6.09348 16.7829 6.20967 16.7092 6.35261C16.6693 6.40451 16.6396 6.46586 16.6248 6.5344L15.6893 10.8901C15.6461 11.0908 15.3727 11.1133 15.2983 10.9224L14.0649 7.76643C13.9664 7.51415 13.7229 7.35162 13.4557 7.35782C13.188 7.36467 12.953 7.5396 12.867 7.79678L11.7601 11.1002C11.7128 11.2416 11.5118 11.2295 11.4813 11.0833L10.5351 6.53244C10.5338 6.52624 10.5319 6.52037 10.5303 6.51449C10.4865 6.30301 10.3396 6.11861 10.1245 6.0393C9.79346 5.91692 9.42698 6.08989 9.30622 6.42572L8.08248 9.82873C8.04738 9.92599 7.91148 9.92501 7.87799 9.82742L7.14826 7.70931C7.05905 7.45051 6.81914 7.27688 6.54863 7.27557H6.54541C6.27651 7.27557 6.03594 7.44659 5.94481 7.70311L4.74587 11.0751C4.69144 11.2279 4.47278 11.2096 4.44412 11.0497L3.65288 6.63688C3.64418 6.58825 3.62776 6.54288 3.60586 6.50176C3.53212 6.31508 3.38623 6.15843 3.18689 6.07945C2.80367 5.92736 2.37182 6.11861 2.22175 6.50666L0.0515507 12.1175C-0.098518 12.5056 0.0901949 12.9436 0.473096 13.0956C0.5623 13.1312 0.654402 13.1479 0.744572 13.1479C1.04213 13.1479 1.32295 12.9661 1.43824 12.6684L2.85262 9.01216C2.91477 8.85159 3.14567 8.87444 3.17594 9.04415L3.95914 13.4138C3.99359 13.6061 4.14334 13.7477 4.32304 13.7794C4.36007 13.8026 4.39968 13.8221 4.44219 13.8378C4.51368 13.8639 4.58678 13.8763 4.6586 13.8763C4.92009 13.8763 5.16548 13.7121 5.25919 13.4484L6.43173 10.1502C6.46651 10.0526 6.60273 10.0533 6.63654 10.1512L7.3637 12.2621C7.45226 12.5193 7.69185 12.6916 7.96075 12.6916H7.96526C8.2332 12.6916 8.47311 12.5216 8.56522 12.266L9.77317 8.90707C9.83533 8.73377 10.0826 8.75172 10.1203 8.9322L11.0423 13.3669C11.0481 13.6309 11.2136 13.8753 11.4748 13.9654C11.5428 13.9889 11.612 14 11.6799 14C11.946 14 12.1942 13.8303 12.2844 13.5607L13.4115 10.1959C13.4476 10.0882 13.5967 10.0843 13.6379 10.19L14.8848 13.3809C15.0146 13.7131 15.3856 13.8757 15.7134 13.7441C15.9592 13.6456 16.1105 13.4099 16.1166 13.158L17.0451 8.83527C17.0811 8.66752 17.3111 8.65186 17.369 8.81308L18.7615 12.6988C18.8559 12.9618 19.1006 13.125 19.3615 13.125C19.4339 13.125 19.5074 13.1126 19.5795 13.0859C19.9109 12.9638 20.0819 12.5927 19.9614 12.2569L19.9617 12.2559Z" fill="black"/>
</svg>